<?xml version="1.0" encoding="UTF-8" standalone="no"?>
<!-- Created with Inkscape (http://www.inkscape.org/) -->

<svg
   xmlns:dc="http://purl.org/dc/elements/1.1/"
   xmlns:cc="http://creativecommons.org/ns#"
   xmlns:rdf="http://www.w3.org/1999/02/22-rdf-syntax-ns#"
   xmlns:svg="http://www.w3.org/2000/svg"
   xmlns="http://www.w3.org/2000/svg"
   xmlns:sodipodi="http://sodipodi.sourceforge.net/DTD/sodipodi-0.dtd"
   xmlns:inkscape="http://www.inkscape.org/namespaces/inkscape"
   width="744.09448819"
   height="1052.3622047"
   id="svg2"
   version="1.1"
   inkscape:version="0.48.3.1 r9886"
   sodipodi:docname="guitar_site_log.svg"
   inkscape:export-filename="/home/ming/work/guitar/app/assets/images/guitar_site_log.png"
   inkscape:export-xdpi="90"
   inkscape:export-ydpi="90">
  <defs
     id="defs4" />
  <sodipodi:namedview
     id="base"
     pagecolor="#ffffff"
     bordercolor="#666666"
     borderopacity="1.0"
     inkscape:pageopacity="0.0"
     inkscape:pageshadow="2"
     inkscape:zoom="0.7"
     inkscape:cx="517.09565"
     inkscape:cy="632.61802"
     inkscape:document-units="px"
     inkscape:current-layer="layer1"
     showgrid="false"
     inkscape:window-width="1600"
     inkscape:window-height="876"
     inkscape:window-x="0"
     inkscape:window-y="24"
     inkscape:window-maximized="1" />
  <metadata
     id="metadata7">
    <rdf:RDF>
      <cc:Work
         rdf:about="">
        <dc:format>image/svg+xml</dc:format>
        <dc:type
           rdf:resource="http://purl.org/dc/dcmitype/StillImage" />
        <dc:title></dc:title>
      </cc:Work>
    </rdf:RDF>
  </metadata>
  <g
     inkscape:label="Layer 1"
     inkscape:groupmode="layer"
     id="layer1">
    <g
       id="g3348"
       transform="matrix(0.514929,0,0,0.514929,69.946997,82.526025)">
      <g
         transform="matrix(0.19826773,-0.03923406,0.04242509,0.20323076,107.81604,144.19465)"
         id="g3290">
        <rect
           style="fill:#ff7f2a"
           id="rect3147"
           width="56.642971"
           height="392.80917"
           x="623.01788"
           y="-92.239334"
           transform="matrix(0.85685235,0.51556188,-0.76350011,0.6458077,0,0)" />
        <path
           sodipodi:type="arc"
           style="fill:#ff7f2a"
           id="path3215"
           sodipodi:cx="264.28571"
           sodipodi:cy="630.93359"
           sodipodi:rx="42.857143"
           sodipodi:ry="42.857143"
           d="m 307.14285,630.93359 c 0,23.66935 -19.1878,42.85715 -42.85714,42.85715 -23.66935,0 -42.85715,-19.1878 -42.85715,-42.85715 0,-23.66934 19.1878,-42.85714 42.85715,-42.85714 23.66934,0 42.85714,19.1878 42.85714,42.85714 z"
           transform="translate(-18.571429,-25.714285)" />
        <path
           style="fill:#008000"
           id="path3240"
           d="m 585.77304,240.7089 c 3.59737,3.97519 7.25323,7.91538 10.68024,12.04031 3.29964,3.90496 6.3026,8.03891 9.10433,12.31206 2.66669,3.92334 5.48073,7.75471 8.36768,11.51998 3.44036,3.88167 6.45704,8.09633 9.64221,12.18308 3.65729,4.57144 7.02831,9.37012 10.11544,14.34331 2.52092,3.96126 5.14924,7.85241 8.06245,11.53654 2.99963,3.43649 5.82404,7.01774 8.82454,10.45404 2.20031,2.43434 1.09938,1.23362 3.30207,3.60282 0,0 -17.97414,10.9161 -17.97414,10.9161 l 0,0 c -2.20851,-2.40906 -1.10268,-1.18923 -3.31686,-3.66003 -3.03137,-3.46125 -5.9559,-7.01176 -8.92444,-10.52621 -2.92802,-3.76924 -5.61361,-7.71921 -8.11616,-11.78336 -3.00019,-4.9432 -6.33614,-9.66363 -9.98394,-14.15465 -3.17061,-4.10451 -6.3143,-8.22633 -9.71772,-12.14325 -2.94849,-3.7889 -5.68584,-7.74729 -8.42694,-11.68704 -2.71643,-4.24221 -5.77061,-8.23198 -8.98408,-12.10846 -3.34136,-4.118 -6.90352,-8.09421 -10.72161,-11.77381 0,0 18.06693,-11.07143 18.06693,-11.07143 z"
           inkscape:connector-curvature="0" />
        <path
           style="fill:#008000"
           id="path3242"
           d="m 545.66574,276.70786 c 6.19409,2.75493 11.41795,7.1688 16.55298,11.50478 6.59608,5.64971 11.45421,12.88168 16.79594,19.64733 5.73125,6.94344 11.59142,13.78272 17.60564,20.483 4.21756,4.18894 7.66122,9.02452 11.30005,13.69661 2.96212,3.70579 6.26772,7.11821 9.57886,10.50935 3.35577,3.15407 5.62816,7.21356 8.71732,10.60217 0.4403,0.44079 0.8806,0.88158 1.3209,1.32237 0,0 -18.0128,11.0115 -18.0128,11.0115 l 0,0 c -0.45476,-0.47382 -0.90952,-0.94765 -1.36428,-1.42148 -2.95908,-3.44626 -5.28738,-7.4086 -8.59144,-10.55528 -3.37453,-3.45052 -6.73723,-6.9217 -9.74895,-10.70053 -3.5313,-4.6745 -6.80244,-9.56244 -10.97506,-13.7152 -5.96871,-6.78176 -11.76633,-13.71643 -17.55135,-20.65379 -5.27409,-6.65088 -10.20566,-13.65561 -16.69344,-19.21519 -4.99798,-4.15641 -10.14242,-8.53339 -16.44492,-10.52347 0,0 17.51055,-11.99217 17.51055,-11.99217 z"
           inkscape:connector-curvature="0" />
        <path
           style="fill:#008000"
           id="path3244"
           d="m 527.639,318.16698 c 9.83247,9.24762 18.14358,19.92809 26.5802,30.42472 6.36266,7.99041 12.18728,16.3883 18.6601,24.29137 3.44381,4.14564 7.20695,8.00531 11.00965,11.81832 2.38099,2.40488 1.18564,1.20513 3.58611,3.5992 0,0 -17.91122,10.97902 -17.91122,10.97902 l 0,0 c -2.40725,-2.40189 -1.20271,-1.20164 -3.61364,-3.60074 -3.8069,-3.8924 -7.61003,-7.80423 -10.96421,-12.10263 -6.26933,-8.04023 -11.8116,-16.60537 -18.09112,-24.63976 -8.2645,-10.55654 -16.66402,-21.20129 -27.17228,-29.64498 0,0 17.91641,-11.12452 17.91641,-11.12452 z"
           inkscape:connector-curvature="0" />
        <path
           style="fill:#008000"
           id="path3262"
           d="m 328.26841,458.41739 c -5.29552,-4.31583 -10.81134,-8.37848 -16.47387,-12.2002 -4.4372,-3.01078 -8.83927,-6.04385 -13.4052,-8.85491 -3.54733,-2.2578 -6.79649,-4.94325 -10.07659,-7.5643 -3.30918,-2.65799 -7.22966,-4.13504 -11.19363,-5.49753 -3.97586,-1.29342 -8.04001,-2.10902 -12.19004,-2.5539 -3.70726,-0.33478 -7.43267,-0.33976 -11.1517,-0.34122 -3.62668,0.18583 -6.62898,1.89401 -9.77736,3.48418 -2.42992,1.3741 -4.95385,2.52529 -7.45258,3.76557 0,0 16.46403,-13.1506 16.46403,-13.1506 l 0,0 c 2.51873,-1.22429 4.98745,-2.54049 7.48626,-3.80402 3.286,-1.60358 6.676,-2.79565 10.39127,-2.71135 3.75447,0.0448 7.51848,0.0966 11.24817,0.57618 4.23692,0.59411 8.4164,1.52453 12.462,2.93692 4.10258,1.54678 8.13757,3.23853 11.55567,6.06502 3.26798,2.51668 6.39544,5.22991 9.919,7.39526 4.55097,2.87136 8.91615,6.0046 13.39087,8.99174 5.58596,4.01491 11.02889,8.22952 16.67563,12.15931 0,0 -17.87193,11.30385 -17.87193,11.30385 z"
           inkscape:connector-curvature="0" />
        <path
           style="fill:#008000"
           id="path3264"
           d="m 435.89238,509.21662 c 4.14334,3.7532 8.26307,7.52854 12.31257,11.38295 3.56386,3.38561 7.38702,6.4821 11.04336,9.76967 3.51196,3.31202 7.09672,6.57088 10.34454,10.14641 2.7879,2.99772 5.08629,6.37666 7.36831,9.76034 2.1278,3.29833 3.61937,6.94219 5.30999,10.47019 1.77189,3.03646 3.27638,6.20227 4.35854,9.54631 1.34922,3.38617 2.0347,6.94089 2.46843,10.54347 0.4135,3.70485 0.48308,7.29573 -0.70078,10.85291 -1.47299,3.55592 -4.13355,6.20406 -7.17038,8.45495 0,0 -19.67676,7.60517 -19.67676,7.60517 l 0,0 c 3.19949,-1.54824 5.81393,-4.14778 7.65159,-7.19111 1.5648,-3.19337 1.563,-6.41914 1.16086,-9.91883 -0.33609,-3.48377 -0.92427,-6.92248 -2.26539,-10.17956 -0.9994,-3.26522 -2.51169,-6.33017 -4.20447,-9.29174 -1.64118,-3.43897 -3.05336,-7.00301 -5.12568,-10.21863 -2.22283,-3.30239 -4.50813,-6.56416 -7.19116,-9.51666 -3.18455,-3.53765 -6.72249,-6.73794 -10.20559,-9.97671 -3.66368,-3.29424 -7.51462,-6.3814 -11.00332,-9.86608 -4.03175,-3.84777 -8.10684,-7.66291 -12.4385,-11.1742 0,0 17.96384,-11.19885 17.96384,-11.19885 z"
           inkscape:connector-curvature="0" />
        <path
           style="fill:#008000"
           id="path3276"
           d="m 236.38657,443.29143 c -1.08632,4.16945 -2.24871,8.31187 -3.52222,12.42903 -0.86647,3.62569 -2.38595,7.02913 -3.79728,10.46346 -1.23844,3.28067 -2.85363,6.35744 -4.63743,9.36608 -2.40837,4.29007 -5.38487,8.20413 -8.55646,11.94972 -2.8277,3.24736 -5.8635,6.30437 -8.91027,9.34418 -3.30024,3.30101 -6.55392,6.64286 -10.06133,9.72553 -3.15378,3.00573 -6.68344,5.50387 -10.26006,7.96527 -3.40847,2.50417 -6.57582,5.24548 -10.19793,7.44477 -3.79566,2.2372 -7.41366,4.77231 -10.77478,7.61979 -2.88821,2.86238 -6.15705,5.26539 -9.38302,7.72096 -7.85857,6.17697 -16.88182,10.43368 -25.50718,15.50861 -5.35312,3.14963 10.74993,-6.22461 16.14747,-9.29749 0.61303,-0.349 -1.19495,0.75 -1.79242,1.125 -8.74033,5.89636 -17.5561,12.39334 -27.66065,15.54753 -4.3216,1.25101 -8.50557,2.62339 -12.45312,4.80884 -0.64962,0.33843 -1.29924,0.67686 -1.94886,1.01529 0,0 16.43418,-13.1826 16.43418,-13.1826 l 0,0 c 0.6446,-0.33092 1.2892,-0.66183 1.9338,-0.99274 4.09865,-1.93693 8.42212,-3.17335 12.69122,-4.66902 6.99294,-2.96698 14.58381,-8.22041 -13.5614,8.31057 -0.52005,0.30545 1.08167,-0.53629 1.60093,-0.84309 1.34265,-0.79331 2.07077,-1.39343 3.3279,-2.33374 8.25708,-5.59932 -0.39509,0.20767 21.65071,-12.74054 5.33945,-3.13604 -10.729,6.18611 -16.07764,9.30647 -0.64658,0.37721 1.33882,-0.67545 1.9708,-1.07664 1.28417,-0.8152 2.3948,-1.8848 3.70365,-2.66566 3.13085,-2.53434 6.5667,-4.70154 9.39546,-7.59393 3.27586,-3.01485 6.86246,-5.66183 10.65669,-7.99506 1.26196,-0.73767 2.5763,-1.38766 3.80742,-2.17571 2.30995,-1.47865 4.12448,-3.61928 6.4251,-5.11685 3.52753,-2.51042 7.27373,-4.70746 10.37119,-7.77828 3.54619,-3.01291 6.87722,-6.23215 10.11213,-9.57968 3.02295,-3.0367 6.07639,-6.04627 8.96835,-9.20961 3.21039,-3.60235 6.28208,-7.34748 8.69954,-11.54206 1.60097,-3.02649 3.56745,-5.85415 4.66049,-9.14172 1.52796,-3.3361 3.02277,-6.7423 3.97387,-10.28935 1.25444,-4.07458 2.62438,-8.11968 3.4002,-12.32205 0,0 19.17095,-9.10528 19.17095,-9.10528 z"
           inkscape:connector-curvature="0" />
        <path
           style="fill:#008000"
           id="path3280"
           d="m 427.62488,630.88025 c -3.19762,1.02207 -6.51487,1.65228 -9.58696,3.05518 -1.1414,0.52122 -3.93333,2.11983 -5.00009,2.71883 -0.92894,0.48696 -1.86499,0.96058 -2.78682,1.46086 -12.68886,6.8863 21.72424,-13.16782 10.2757,-5.79232 -0.76478,0.4927 -1.5248,0.99282 -2.2814,1.49799 -0.72218,0.4822 -1.43654,0.97601 -2.15482,1.46401 -3.99089,2.50928 -7.76608,5.31551 -11.42565,8.28201 -3.58596,3.38111 -7.70864,6.09128 -11.71213,8.93622 -3.93791,2.81793 -7.62701,5.93292 -11.12509,9.27509 -3.89133,3.69415 -6.95315,8.03427 -9.72844,12.59065 -2.38258,3.95752 -5.11942,7.68203 -7.78913,11.4461 -2.72471,3.63265 -4.81802,7.66237 -7.20379,11.51068 -2.11317,3.28769 -3.85434,6.79353 -5.57435,10.29719 -1.35054,3.59722 -3.02329,7.03277 -4.80939,10.42993 -1.99338,4.62076 -4.66259,8.88941 -7.18658,13.22776 -1.89099,4.09473 -5.15674,6.59591 -8.88761,8.90446 -8.87116,5.23006 -1.46872,0.87844 -22.33822,12.82965 0,0 16.37696,-13.18932 16.37696,-13.18932 l 0,0 c -16.59112,9.63749 -21.11785,12.31374 -13.65001,7.90949 3.6281,-2.03871 7.32297,-3.9936 9.25362,-7.88024 2.46154,-4.34269 5.45961,-8.43696 7.20614,-13.14115 1.7408,-3.37794 3.68571,-6.66562 4.78605,-10.33237 1.65867,-3.62702 3.53945,-7.16551 5.58082,-10.59026 2.49081,-3.79081 4.41793,-7.90704 7.12109,-11.56217 2.58642,-3.81546 5.47186,-7.42952 7.89929,-11.35659 2.81435,-4.63914 5.64839,-9.23226 9.53773,-13.08334 3.45023,-3.43966 7.0341,-6.69003 10.98379,-9.5559 3.94691,-2.87951 8.19417,-5.40956 11.75214,-8.77613 3.55308,-3.12869 7.34679,-6.02293 11.39228,-8.48915 10.41653,-7.31052 21.57793,-13.47008 32.80285,-19.44937 4.78685,-2.49075 9.83424,-4.03721 14.91563,-5.79149 0,0 -16.64361,13.1537 -16.64361,13.1537 z"
           inkscape:connector-curvature="0" />
        <path
           style="fill:#008000"
           id="path3284"
           d="m 80.360367,595.2114 c -2.517308,4.8807 -4.662289,9.93816 -7.041915,14.88358 -2.516891,3.88323 -3.8728,8.14663 -4.933838,12.59822 -0.959936,3.85808 -1.384977,7.80897 -2.564377,11.61025 -1.439473,3.40439 -2.579159,6.87211 -3.137486,10.52684 -0.356037,3.42107 -0.567046,6.88074 -0.31272,10.31487 0.27129,3.49245 0.857689,6.85174 2.050425,10.14103 0.91016,3.26691 1.959452,6.36203 3.470579,9.4008 1.639104,3.45248 2.87965,7.07272 4.561077,10.50446 1.827096,3.51446 3.364928,7.16121 4.837546,10.83502 1.602041,3.86952 4.29745,7.13292 6.418394,10.71738 2.537353,4.42969 5.92223,8.26622 8.747709,12.4986 2.810564,3.9541 5.726803,7.80609 8.411539,11.84918 2.6103,4.02395 5.45564,7.8542 8.57181,11.49853 3.25999,3.72902 6.75877,7.23715 10.25822,10.73886 3.46466,3.33374 7.09251,6.52222 10.80232,9.58372 3.79758,3.36636 7.67192,6.5527 11.94305,9.29071 3.28742,2.49065 6.78402,4.58396 10.4287,6.50103 4.21149,2.17535 8.54133,4.05995 12.97042,5.75479 4.06737,1.52291 8.36286,2.06987 12.56292,3.04147 3.63329,0.91951 7.36953,1.24992 11.1015,1.42556 0.60719,0.0175 1.22084,-0.0377 1.82155,0.0524 1.41825,0.21267 2.77516,0.72535 4.16929,1.06158 2.01486,0.48594 4.03117,0.87972 6.07496,1.21908 3.75057,0.54421 7.43211,1.37136 11.21277,1.73812 3.52317,0.28877 7.0606,0.30008 10.59313,0.30874 3.58973,0.009 7.1795,-7.5e-4 10.76924,-0.005 3.54906,-0.01 7.0981,-0.004 10.64717,-0.0108 3.81155,0.0854 7.52153,-1.04151 11.16566,-2.04099 0.85194,-0.25215 1.70389,-0.5043 2.55583,-0.75645 0,0 -16.61962,12.80789 -16.61962,12.80789 l 0,0 c -0.88042,0.25101 -1.76084,0.50202 -2.64126,0.75304 -3.80111,0.95385 -7.60821,1.89867 -11.56742,1.66587 -3.54376,-0.006 -7.08747,0.003 -10.63124,0.002 -3.59835,0.005 -7.19669,0.0166 -10.79505,3.9e-4 -3.57104,-0.045 -7.15002,-0.0885 -10.70187,-0.50028 -3.78762,-0.47699 -7.50401,-1.32425 -11.28204,-1.86569 -3.96275,-0.77912 -7.87291,-2.02394 -11.93421,-2.11418 -3.79497,-0.2673 -7.56721,-0.78311 -11.26098,-1.71767 -4.30664,-0.88735 -8.6234,-1.74257 -12.74395,-3.33242 -4.43307,-1.82327 -8.81509,-3.74554 -13.07124,-5.95622 -3.70352,-1.94673 -7.20566,-4.16724 -10.5766,-6.64817 -4.25625,-2.85929 -8.04394,-6.27131 -11.98712,-9.5385 -3.75417,-3.11841 -7.49466,-6.28722 -10.952,-9.7331 -3.508045,-3.56349 -7.030085,-7.12232 -10.317388,-10.89265 -3.145174,-3.7264 -6.091653,-7.59095 -8.732146,-11.69514 -2.671707,-4.04604 -5.553941,-7.92169 -8.400161,-11.84527 -2.847924,-4.25497 -6.134078,-8.19861 -8.798092,-12.58109 -2.246664,-3.64183 -4.960639,-7.03982 -6.651169,-10.98978 -1.413603,-3.62986 -2.958599,-7.20836 -4.727816,-10.67993 -1.750909,-3.4012 -2.952473,-7.04066 -4.588743,-10.49853 -1.551064,-3.11275 -2.819086,-6.20112 -3.613644,-9.59528 -1.259054,-3.45864 -2.005454,-6.9308 -2.298483,-10.61156 -0.420393,-3.56542 -0.155035,-7.18304 0.104696,-10.75556 0.444152,-3.80126 1.329294,-7.46304 2.981046,-10.94195 1.503165,-3.66212 1.706084,-7.6107 2.68132,-11.42589 1.138882,-4.53389 1.970105,-9.16378 4.789591,-13.05058 2.506592,-4.82023 4.52391,-9.87331 6.949471,-14.7357 0,0 19.230645,-8.806 19.230645,-8.806 z"
           inkscape:connector-curvature="0" />
        <path
           style="fill:#008000"
           id="path3288"
           d="m 342.10085,726.14857 c -1.33866,4.4428 -3.79371,8.38916 -6.05607,12.39772 -2.05649,3.89811 -4.6997,7.40775 -7.55817,10.74285 -2.37343,2.7368 -5.54256,4.55453 -8.40917,6.71087 -2.90046,2.31451 -6.01682,4.29467 -9.1959,6.19401 -2.21538,1.4211 -1.12167,0.68689 -3.28091,2.20296 0,0 -19.61361,7.77952 -19.61361,7.77952 l 0,0 c 2.1108,-1.62649 1.03992,-0.8386 3.21223,-2.36421 3.11426,-1.97125 6.35948,-3.66469 9.26045,-5.96459 2.78054,-2.25966 5.85071,-4.08561 8.59696,-6.36716 2.90568,-3.20259 5.68609,-6.53508 7.77496,-10.34509 2.14624,-3.89983 4.73629,-7.60588 6.09828,-11.8816 0,0 19.17095,-9.10528 19.17095,-9.10528 z"
           inkscape:connector-curvature="0" />
      </g>
      <text
         transform="scale(0.92389514,1.0823739)"
         sodipodi:linespacing="125%"
         id="text3303"
         y="256.93634"
         x="598.40906"
         style="font-size:95.46343994px;font-style:italic;font-variant:normal;font-weight:bold;font-stretch:normal;text-align:end;line-height:125%;letter-spacing:0px;word-spacing:0px;text-anchor:end;fill:#008000;fill-opacity:1;stroke:none;font-family:WenQuanYi Micro Hei;-inkscape-font-specification:WenQuanYi Micro Hei Bold Italic"
         xml:space="preserve"><tspan
           y="256.93634"
           x="598.40906"
           id="tspan3305"
           sodipodi:role="line">爱 吉 他</tspan></text>
      <text
         sodipodi:linespacing="125%"
         id="text3307"
         y="323.79077"
         x="417.14282"
         style="font-size:40px;font-style:normal;font-weight:normal;line-height:125%;letter-spacing:0px;word-spacing:0px;fill:#ff6600;fill-opacity:1;stroke:none;font-family:Sans"
         xml:space="preserve"><tspan
           y="323.79077"
           x="417.14282"
           id="tspan3309"
           sodipodi:role="line">52jita.net</tspan></text>
    </g>
  </g>
</svg>
